<svg xmlns="http://www.w3.org/2000/svg" height="24" viewBox="0 -960 960 960" width="24"><path d="m712.154-139.692-262-262.462q-22.308 10.308-45.518 16.231Q381.425-380 355.385-380q-91.667 0-155.834-64.167Q135.385-508.333 135.385-600q0-26 5.769-50.039 5.769-24.038 16.846-46.115l141.385 139.846L399.077-656 260.769-795.846q22.077-11.077 45.419-17.616Q329.529-820 355.385-820q91.666 0 155.833 64.167Q575.385-691.667 575.385-600q0 27.615-5.539 50.808-5.538 23.192-16.615 43.961l262.461 262q8.923 9.191 8.923 22.211 0 13.02-8.752 21.772l-61.265 61.265q-8.752 8.752-21.137 7.983-12.384-.769-21.307-9.692Zm22.077-35.001 46.23-46.23-276.769-276.769q15.693-21.539 23.693-48.039 8-26.5 8-54.269 0-73.077-56.577-131.038Q422.231-789 333.693-778l99.384 99.385q9.692 9.692 9.692 22.615 0 12.923-9.692 22.615L322-522.308q-9.692 9.693-22.615 9.693-12.923 0-22.616-9.693l-99.384-99.384q-8.692 97 50.038 149.346Q286.154-420 355.385-420q26.512 0 53.025-7.616 26.513-7.615 49.052-23.846l276.769 276.769ZM472-484.923Z"/></svg>