<svg version="1.1" xmlns="http://www.w3.org/2000/svg" viewBox="0 0 232.3734791548763 157.4140959100962" width="232.3734791548763" height="157.4140959100962">
  <!-- svg-source:excalidraw -->
  
  <defs>
    <style>
      @font-face {
        font-family: "Virgil";
        src: url("https://unpkg.com/@excalidraw/excalidraw@0.13.0/dist/excalidraw-assets/Virgil.woff2");
      }
      @font-face {
        font-family: "Cascadia";
        src: url("https://unpkg.com/@excalidraw/excalidraw@0.13.0/dist/excalidraw-assets/Cascadia.woff2");
      }
    </style>
  </defs>
  <g transform="translate(73.38103978407298 14.314147949218722) rotate(16.14216564609798 -30.296722412109375 51.50440979003908)" stroke="none"><path fill="#000" d="M 3.49,3.92 Q 3.49,3.92 -12.61,18.29 -28.73,32.66 -36.76,40.83 -44.79,49.00 -48.56,53.23 -52.34,57.47 -50.38,62.59 -48.43,67.71 -43.56,71.06 -38.70,74.40 -33.83,76.93 -28.96,79.45 -23.86,82.09 -18.76,84.73 -14.52,87.57 -10.28,90.41 -6.65,93.00 -3.03,95.59 -0.42,96.60 2.18,97.62 2.91,98.06 3.64,98.49 4.20,99.14 4.75,99.79 5.07,100.57 5.38,101.36 5.43,102.21 5.48,103.06 5.26,103.88 5.03,104.70 4.56,105.40 4.08,106.11 3.41,106.63 2.73,107.14 1.93,107.42 1.12,107.69 0.27,107.69 -0.57,107.70 -1.37,107.43 -2.18,107.16 -2.86,106.65 -3.54,106.13 -4.01,105.43 -4.49,104.73 -4.72,103.91 -4.95,103.09 -4.91,102.25 -4.87,101.40 -4.56,100.61 -4.24,99.82 -3.70,99.17 -3.15,98.52 -2.42,98.08 -1.69,97.64 -0.86,97.45 -0.03,97.26 0.80,97.35 1.65,97.44 2.42,97.80 3.19,98.15 3.81,98.73 4.43,99.32 4.83,100.07 5.23,100.82 5.37,101.65 5.51,102.49 5.37,103.33 5.24,104.17 4.84,104.92 4.45,105.68 3.83,106.26 3.22,106.85 2.45,107.21 1.68,107.57 0.83,107.66 -0.00,107.76 -0.83,107.58 -1.66,107.40 -1.66,107.40 -1.66,107.40 -7.37,104.25 -13.09,101.10 -18.26,97.62 -23.44,94.13 -27.55,92.03 -31.67,89.92 -36.44,87.49 -41.21,85.06 -45.99,82.00 -50.76,78.94 -54.04,76.13 -57.31,73.31 -59.66,69.30 -62.01,65.29 -61.17,58.01 -60.33,50.72 -56.31,46.17 -52.28,41.63 -44.00,33.22 -35.72,24.82 -19.61,10.45 -3.49,-3.92 -2.97,-4.28 -2.45,-4.64 -1.86,-4.86 -1.27,-5.09 -0.64,-5.17 -0.01,-5.25 0.61,-5.17 1.24,-5.10 1.83,-4.88 2.42,-4.65 2.94,-4.30 3.47,-3.94 3.89,-3.47 4.31,-2.99 4.60,-2.43 4.90,-1.87 5.05,-1.26 5.21,-0.65 5.21,-0.01 5.21,0.61 5.06,1.23 4.91,1.84 4.62,2.40 4.33,2.97 3.91,3.44 3.49,3.92 3.49,3.92 L 3.49,3.92 Z"></path></g><g transform="translate(85.4706699110261 146.35614013671875) rotate(0 40.150146484375 -68.17807006835938)" stroke="none"><path fill="#000" d="M -4.03,-3.36 Q -4.03,-3.36 -1.85,-5.97 0.31,-8.58 3.78,-14.52 7.24,-20.45 9.42,-24.80 11.59,-29.14 15.83,-37.25 20.06,-45.36 23.38,-49.63 26.69,-53.91 30.18,-57.60 33.68,-61.29 36.23,-66.22 38.79,-71.16 40.74,-75.23 42.69,-79.30 44.32,-83.67 45.94,-88.04 52.90,-99.02 59.86,-110.00 63.55,-116.15 67.25,-122.30 69.31,-126.71 71.37,-131.12 73.33,-134.72 75.29,-138.32 75.87,-138.94 76.45,-139.56 77.20,-139.97 77.94,-140.37 78.78,-140.52 79.62,-140.66 80.46,-140.54 81.30,-140.41 82.05,-140.02 82.81,-139.62 83.40,-139.01 83.99,-138.40 84.35,-137.63 84.72,-136.87 84.82,-136.02 84.92,-135.18 84.75,-134.35 84.57,-133.52 84.14,-132.78 83.71,-132.05 83.07,-131.49 82.42,-130.94 81.64,-130.61 80.85,-130.29 80.00,-130.24 79.16,-130.18 78.33,-130.40 77.51,-130.62 76.80,-131.09 76.10,-131.56 75.58,-132.23 75.05,-132.91 74.78,-133.71 74.50,-134.51 74.49,-135.36 74.48,-136.21 74.74,-137.02 75.01,-137.83 75.51,-138.51 76.02,-139.19 76.72,-139.67 77.42,-140.16 78.24,-140.39 79.05,-140.63 79.90,-140.59 80.75,-140.55 81.54,-140.25 82.34,-139.94 82.99,-139.39 83.64,-138.85 84.09,-138.13 84.53,-137.40 84.72,-136.57 84.91,-135.75 84.83,-134.90 84.75,-134.05 84.40,-133.28 84.05,-132.51 84.05,-132.51 84.05,-132.51 82.61,-129.92 81.17,-127.34 78.71,-122.11 76.25,-116.89 72.48,-110.61 68.71,-104.34 61.25,-92.00 53.79,-79.67 51.14,-73.39 48.48,-67.11 44.90,-60.59 41.31,-54.08 38.15,-50.77 34.98,-47.46 29.72,-40.46 24.46,-33.47 22.38,-28.37 20.31,-23.28 18.43,-19.43 16.55,-15.59 12.47,-8.72 8.39,-1.86 6.21,0.74 4.03,3.36 3.57,3.79 3.11,4.23 2.56,4.54 2.01,4.85 1.40,5.02 0.79,5.19 0.15,5.21 -0.47,5.23 -1.09,5.09 -1.71,4.96 -2.28,4.68 -2.85,4.41 -3.33,4.00 -3.82,3.60 -4.20,3.09 -4.57,2.58 -4.81,1.99 -5.06,1.41 -5.15,0.78 -5.25,0.15 -5.19,-0.47 -5.13,-1.10 -4.92,-1.70 -4.72,-2.29 -4.37,-2.83 -4.03,-3.36 -4.03,-3.36 L -4.03,-3.36 Z"></path></g><g transform="translate(188.33486668836986 37.4329528808594) rotate(14.488092021529964 -5.3614501953125 61.3743438720703)" stroke="none"><path fill="#000" d="M 4.30,-3.01 Q 4.30,-3.01 7.35,1.34 10.40,5.69 13.05,9.74 15.70,13.78 18.15,19.13 20.59,24.47 23.62,29.80 26.64,35.13 28.63,39.21 30.62,43.30 33.38,48.64 36.14,53.99 38.06,58.40 39.97,62.82 39.53,67.49 39.09,72.16 33.88,75.10 28.66,78.03 18.93,82.52 9.21,87.02 3.67,89.51 -1.85,92.00 -7.42,95.34 -12.98,98.68 -16.45,101.44 -19.91,104.21 -24.88,108.84 -29.84,113.47 -35.33,118.29 -40.82,123.12 -42.09,124.17 -43.36,125.22 -44.09,125.66 -44.82,126.09 -45.65,126.26 -46.49,126.43 -47.33,126.33 -48.17,126.23 -48.94,125.87 -49.71,125.50 -50.32,124.91 -50.93,124.32 -51.32,123.57 -51.71,122.81 -51.84,121.97 -51.97,121.13 -51.82,120.29 -51.68,119.46 -51.27,118.71 -50.87,117.96 -50.24,117.39 -49.62,116.81 -48.84,116.46 -48.07,116.11 -47.22,116.03 -46.38,115.94 -45.55,116.13 -44.72,116.33 -44.00,116.77 -43.27,117.22 -42.73,117.87 -42.19,118.52 -41.88,119.32 -41.57,120.11 -41.54,120.96 -41.50,121.81 -41.74,122.62 -41.97,123.44 -42.46,124.14 -42.94,124.84 -43.62,125.35 -44.30,125.85 -45.11,126.12 -45.92,126.38 -46.77,126.37 -47.62,126.36 -48.42,126.08 -49.23,125.80 -49.90,125.28 -50.57,124.76 -51.04,124.05 -51.51,123.34 -51.73,122.52 -51.94,121.70 -51.89,120.85 -51.83,120.00 -51.51,119.22 -51.19,118.43 -50.63,117.79 -50.08,117.15 -50.08,117.15 -50.08,117.15 -48.81,116.09 -47.54,115.04 -42.27,110.41 -37.00,105.78 -31.69,100.86 -26.38,95.94 -20.33,91.76 -14.28,87.59 -10.40,85.09 -6.52,82.59 -0.64,79.94 5.24,77.29 11.89,74.61 18.54,71.93 24.43,69.46 30.33,66.98 28.57,62.89 26.81,58.80 23.99,53.35 21.18,47.90 19.28,44.00 17.38,40.10 14.13,34.27 10.87,28.44 9.11,24.30 7.35,20.15 4.57,15.93 1.79,11.72 -1.25,7.36 -4.30,3.01 -4.60,2.45 -4.89,1.89 -5.05,1.28 -5.21,0.66 -5.21,0.03 -5.21,-0.59 -5.07,-1.21 -4.92,-1.83 -4.63,-2.39 -4.34,-2.95 -3.92,-3.43 -3.50,-3.90 -2.99,-4.27 -2.47,-4.63 -1.88,-4.86 -1.29,-5.09 -0.66,-5.17 -0.03,-5.25 0.59,-5.18 1.22,-5.10 1.81,-4.88 2.41,-4.66 2.93,-4.31 3.45,-3.95 3.88,-3.48 4.30,-3.01 4.30,-3.01 L 4.30,-3.01 Z"></path></g></svg>